<?xml version="1.0" standalone="no"?>
<svg xmlns:xlink="http://www.w3.org/1999/xlink" id="wave" style="transform:rotate(0deg); transition: 0.3s" viewBox="0 0 1440 490" version="1.1" xmlns="http://www.w3.org/2000/svg"><defs><linearGradient id="sw-gradient-0" x1="0" x2="0" y1="1" y2="0"><stop stop-color="rgba(2.597, 2.597, 2.597, 1)" offset="0%"/><stop stop-color="rgba(0, 0, 0, 1)" offset="100%"/></linearGradient></defs><path style="transform:translate(0, 0px); opacity:1" fill="url(#sw-gradient-0)" d="M0,196L60,212.3C120,229,240,261,360,245C480,229,600,163,720,171.5C840,180,960,261,1080,310.3C1200,359,1320,376,1440,326.7C1560,278,1680,163,1800,147C1920,131,2040,212,2160,220.5C2280,229,2400,163,2520,155.2C2640,147,2760,196,2880,187.8C3000,180,3120,114,3240,122.5C3360,131,3480,212,3600,220.5C3720,229,3840,163,3960,114.3C4080,65,4200,33,4320,49C4440,65,4560,131,4680,138.8C4800,147,4920,98,5040,122.5C5160,147,5280,245,5400,285.8C5520,327,5640,310,5760,294C5880,278,6000,261,6120,245C6240,229,6360,212,6480,212.3C6600,212,6720,229,6840,253.2C6960,278,7080,310,7200,318.5C7320,327,7440,310,7560,294C7680,278,7800,261,7920,228.7C8040,196,8160,147,8280,155.2C8400,163,8520,229,8580,261.3L8640,294L8640,490L8580,490C8520,490,8400,490,8280,490C8160,490,8040,490,7920,490C7800,490,7680,490,7560,490C7440,490,7320,490,7200,490C7080,490,6960,490,6840,490C6720,490,6600,490,6480,490C6360,490,6240,490,6120,490C6000,490,5880,490,5760,490C5640,490,5520,490,5400,490C5280,490,5160,490,5040,490C4920,490,4800,490,4680,490C4560,490,4440,490,4320,490C4200,490,4080,490,3960,490C3840,490,3720,490,3600,490C3480,490,3360,490,3240,490C3120,490,3000,490,2880,490C2760,490,2640,490,2520,490C2400,490,2280,490,2160,490C2040,490,1920,490,1800,490C1680,490,1560,490,1440,490C1320,490,1200,490,1080,490C960,490,840,490,720,490C600,490,480,490,360,490C240,490,120,490,60,490L0,490Z"/></svg>